<?xml version="1.0" encoding="UTF-8" standalone="no"?>
<svg
   width="1160"
   height="480"
   version="1.1"
   id="svg24"
   sodipodi:docname="Roundel_of_South_Korea.svg"
   inkscape:version="1.3.2 (091e20e, 2023-11-25, custom)"
   xmlns:inkscape="http://www.inkscape.org/namespaces/inkscape"
   xmlns:sodipodi="http://sodipodi.sourceforge.net/DTD/sodipodi-0.dtd"
   xmlns="http://www.w3.org/2000/svg"
   xmlns:svg="http://www.w3.org/2000/svg"
   xmlns:rdf="http://www.w3.org/1999/02/22-rdf-syntax-ns#"
   xmlns:cc="http://creativecommons.org/ns#"
   xmlns:dc="http://purl.org/dc/elements/1.1/">
  <defs
     id="defs28">
    <inkscape:path-effect
       effect="powerstroke"
       id="path-effect151"
       is_visible="true"
       lpeversion="1"
       offset_points="0,-9.8534383e-16 | 2,0.50061117 | 4,2.9560309e-15"
       not_jump="false"
       sort_points="true"
       interpolator_type="CentripetalCatmullRom"
       interpolator_beta="0.2"
       start_linecap_type="zerowidth"
       linejoin_type="round"
       miter_limit="4"
       scale_width="1"
       end_linecap_type="zerowidth"
       message="&lt;b&gt;Ctrl + click&lt;/b&gt; on existing node and move it" />
  </defs>
  <sodipodi:namedview
     id="namedview26"
     pagecolor="#ffffff"
     bordercolor="#666666"
     borderopacity="1.0"
     inkscape:pageshadow="2"
     inkscape:pageopacity="0.0"
     inkscape:pagecheckerboard="0"
     showgrid="false"
     inkscape:zoom="1"
     inkscape:cx="579.5"
     inkscape:cy="240.5"
     inkscape:window-width="1600"
     inkscape:window-height="847"
     inkscape:window-x="-8"
     inkscape:window-y="-8"
     inkscape:window-maximized="1"
     inkscape:current-layer="g3033"
     inkscape:showpageshadow="2"
     inkscape:deskcolor="#d1d1d1">
    <sodipodi:guide
       position="580,240"
       orientation="-0.55469921,-0.83205095"
       id="guide4"
       inkscape:locked="false" />
  </sodipodi:namedview>
  <metadata
     id="metadata2">
    <rdf:RDF>
      <cc:Work
         rdf:about="">
        <dc:format>image/svg+xml</dc:format>
        <dc:type
           rdf:resource="http://purl.org/dc/dcmitype/StillImage" />
        <dc:title>Roundel of the Republic of Korea Air Force</dc:title>
      </cc:Work>
    </rdf:RDF>
  </metadata>
  <rect
     width="300"
     height="40"
     y="300"
     id="rect4" />
  <rect
     width="300"
     height="40"
     y="220"
     id="rect6" />
  <rect
     width="300"
     height="40"
     y="140"
     id="rect8" />
  <rect
     width="300"
     height="40"
     x="860"
     y="300"
     id="rect10" />
  <rect
     width="300"
     height="40"
     x="860"
     y="220"
     id="rect12" />
  <rect
     width="300"
     height="40"
     x="860"
     y="140"
     id="rect14" />
  <g
     transform="matrix(10,0,0,10,580,240)"
     id="g3033">
    <path
       d="M 19.969223,13.312781 A 24,24 0 1 0 -19.969223,-13.312781 18,18 0 1 0 9.9846114,6.6563906"
       id="path42"
       inkscape:connector-curvature="0"
       style="fill:#cd2e3a;fill-opacity:1" />
    <path
       d="M -19.969223,-13.312781 A 12,12 0 1 0 0,0 12,12 0 0 1 19.969223,13.312781 24,24 0 0 1 -19.969223,-13.312781"
       id="path44"
       inkscape:connector-curvature="0"
       style="fill:#0047a0;fill-opacity:1" />
    <path
       d="m -19.969223,-13.312781 c 0,0 0.170845,-0.249408 0,0 -0.703261,1.026653 -1.485603,2.494722 -1.881753,4.3952163 -0.289603,1.3893392 -0.361909,2.9719966 -0.05816,4.646094 0.263689,1.453325 0.808432,2.950638 1.702239,4.35754097 0.830508,1.30726613 1.954005,2.52100943 3.388996,3.50750493 1.390365,0.9558174 2.923169,1.5971878 4.514174,1.9211991 1.588262,0.3234523 3.2062259,0.3248098 4.7595408,0.030871 C -5.942159,5.2424873 -4.4373449,4.6311134 -3.1091774,3.7676907 -1.6828799,2.840475 -0.49684661,1.6477631 0.41653401,0.27768861 1.2572667,-0.98341369 2.3393968,-2.0880087 3.6420407,-2.9590503 4.8556097,-3.77053 6.2364245,-4.3618964 7.718216,-4.6755026 c 1.4365979,-0.3040411 2.945285,-0.3416154 4.44095,-0.078813 1.497669,0.2631551 2.959792,0.8235964 4.304926,1.6914563 1.388551,0.8958723 2.498016,2.0163321 3.337747,3.24370942 0.90394,1.32122848 1.484029,2.74790458 1.792175,4.15364628 0.354932,1.6191834 0.343307,3.1724308 0.106111,4.554392 -0.3247,1.8917916 -1.051979,3.3771916 -1.730902,4.4238926 -0.164512,0.25363 0,0 0,0 0,0 -0.170845,0.249408 0,0 0.703261,-1.026653 1.485602,-2.494722 1.881753,-4.3952163 0.289602,-1.3893392 0.361908,-2.9719965 0.05816,-4.6460939 C 21.64545,2.8181458 21.100707,1.3208328 20.2069,-0.08607011 19.376392,-1.3933362 18.252895,-2.6070795 16.817904,-3.593575 15.427539,-4.5493923 13.894735,-5.1907628 12.30373,-5.5147741 10.715468,-5.8382263 9.0975041,-5.8395839 7.5441893,-5.5456449 5.942159,-5.2424871 4.437345,-4.6311133 3.1091775,-3.7676906 1.6828799,-2.8404749 0.49684665,-1.6477631 -0.416534,-0.27768862 -1.2572667,0.98341375 -2.3393968,2.0880088 -3.6420407,2.9590504 -4.8556096,3.7705301 -6.2364244,4.3618966 -7.718216,4.6755028 c -1.4365979,0.3040412 -2.945285,0.3416155 -4.44095,0.078813 -1.497669,-0.263155 -2.959792,-0.8235964 -4.304926,-1.6914563 -1.388551,-0.8958724 -2.498016,-2.0163321 -3.337747,-3.24370947 -0.90394,-1.32122843 -1.48403,-2.74790463 -1.792175,-4.15364643 -0.354932,-1.6191833 -0.343307,-3.1724307 -0.106112,-4.554392 0.324701,-1.8917916 1.05198,-3.3771916 1.730903,-4.4238926 0.164513,-0.25363 0,0 0,0 z"
       id="path67"
       inkscape:connector-curvature="0"
       style="fill:#ffffff;fill-opacity:1;fill-rule:nonzero;stroke:none;stroke-width:0.32"
       inkscape:path-effect="#path-effect151"
       inkscape:original-d="m -19.969223,-13.312781 c -3.676226,5.5143524 -2.186125,12.96477487 3.328224,16.6409978 C -11.126651,7.0044397 -3.6762254,5.5143525 0,0 3.6762255,-5.5143523 11.126651,-7.0044394 16.640999,-3.3282166 22.155348,0.3480063 23.645448,7.7984286 19.969223,13.312781" />
  </g>
</svg>
