<?xml version="1.0" encoding="UTF-8" standalone="no"?>
<!-- Created with Inkscape (http://www.inkscape.org/) -->

<svg
   width="202.74637mm"
   height="46.505951mm"
   viewBox="0 0 202.74637 46.505951"
   version="1.1"
   id="svg1"
   xml:space="preserve"
   inkscape:version="1.4 (e7c3feb1, 2024-10-09)"
   sodipodi:docname="SNU_merged.svg"
   xmlns:inkscape="http://www.inkscape.org/namespaces/inkscape"
   xmlns:sodipodi="http://sodipodi.sourceforge.net/DTD/sodipodi-0.dtd"
   xmlns="http://www.w3.org/2000/svg"
   xmlns:svg="http://www.w3.org/2000/svg"><sodipodi:namedview
     id="namedview1"
     pagecolor="#ffffff"
     bordercolor="#000000"
     borderopacity="0.25"
     inkscape:showpageshadow="2"
     inkscape:pageopacity="0.0"
     inkscape:pagecheckerboard="0"
     inkscape:deskcolor="#d1d1d1"
     inkscape:document-units="mm"
     inkscape:zoom="0.54085882"
     inkscape:cx="625.85649"
     inkscape:cy="321.71057"
     inkscape:window-width="1408"
     inkscape:window-height="711"
     inkscape:window-x="130"
     inkscape:window-y="83"
     inkscape:window-maximized="0"
     inkscape:current-layer="layer1" /><defs
     id="defs1" /><g
     inkscape:label="Layer 1"
     inkscape:groupmode="layer"
     id="layer1"
     transform="translate(-4.7823111,-55.579194)"><g
       id="g1"><path
         style="fill:#003380;fill-rule:nonzero;stroke:none;stroke-width:0.479769"
         d="m 15.248923,79.218104 h -1.46409 v 1.85278 h 1.46409 z m -6.4005299,14.01466 c 2.1119099,2.78997 5.8261199,2.15294 5.8261199,2.15294 0.45132,-3.94958 -1.14665,-5.23012 -1.14665,-5.23012 -0.99334,2.0968 0.50746,4.62764 0.50746,4.62764 -2.25659,-2.08384 -5.1869299,-1.55046 -5.1869299,-1.55046 m 3.8545699,-21.6763 -0.71045,-0.66294 c -1.71674,0.4362 -2.9648899,1.95859 -2.9648899,1.95859 0.80546,-1.92836 0.36926,-3.73364 0.009,-4.69242 l -0.5161,-0.42325 c -1.49,2.82452 0.1598,5.9233 0.1598,5.9233 2.2911499,-0.55065 3.4529199,-1.45545 4.0230099,-2.10328 m 4.79392,25.77272 c -0.0755,-1.22655 -0.298,-2.12055 -0.57441,-2.83532 l -1.41226,0.002 c 0.38222,1.341 1.2503,2.35161 1.2503,2.35161 -2.58698,-1.66275 -5.37912,-0.62839 -5.37912,-0.62839 2.5654,2.38185 6.11549,1.10995 6.11549,1.10995 m -0.34767,-20.93782 v 16.08771 h 7.97044 c 0.90047,0.0238 1.82903,0.72988 1.82903,0.72988 v -12.87016 c -4.82847,-0.10366 -5.80022,-3.94743 -5.80022,-3.94743 z m 3.77251,9.78003 h -0.59816 v 3.11389 h -0.7558 v -3.11389 h -0.59167 v -0.71045 h 1.94563 z m 3.75956,3.17435 c -0.21378,0 -0.47723,-0.0648 -0.64998,-0.19218 v -0.72125 c 0.17923,0.12308 0.34982,0.20514 0.5744,0.20514 0.24186,0 0.4362,-0.16411 0.4362,-0.41677 0,-0.29368 -0.23537,-0.40597 -0.447,-0.55929 -0.4362,-0.29368 -0.70396,-0.57656 -0.70396,-1.13369 0,-0.60464 0.34982,-1.12722 0.99765,-1.12722 0.24401,0 0.46211,0.0669 0.66942,0.18787 v 0.73636 c -0.15341,-0.13173 -0.33903,-0.24402 -0.54634,-0.24402 -0.23537,0 -0.38221,0.14253 -0.38221,0.37574 0,0.6284 1.15097,0.66511 1.15097,1.69947 0,0.67806 -0.3887,1.18984 -1.09915,1.18984 m 0.56145,-8.53836 h 0.7558 v 3.82434 h -0.7558 z m -2.37752,0 h 0.76227 c 0.48156,0 1.34101,0.0497 1.34101,1.09483 0,0.42109 -0.16619,0.77955 -0.53986,0.98686 l 0.66295,1.74049 h -0.79683 l -0.66295,-1.76425 h -0.0104 v 1.76425 h -0.7558 v -3.82218 z m 0.79682,8.4779 h -0.80546 l -0.14252,-0.64351 h -0.7666 l -0.1382,0.64351 h -0.74932 l 0.88752,-3.82434 h 0.79467 z m -0.95014,-8.4779 v 0.70829 h -0.7666 v 0.83138 h 0.67375 v 0.71045 h -0.67375 v 0.86377 h 0.77524 v 0.70829 h -1.52888 v -3.81786 l -1.06027,3.81786 h -0.6176 l -1.10563,-3.82218 h 0.80979 l 0.4578,1.83551 c 0.0669,0.21594 0.0907,0.43621 0.13613,0.65215 h 0.0104 c 0.0411,-0.22242 0.0561,-0.43837 0.1166,-0.66295 l 0.46212,-1.82471 h 2.31059 z m 12.93927,-12.72764 -2.38833,2.59778 0.0236,4.15258 c 0,0 -0.0734,0.68453 -0.22026,1.02356 h 1.53535 l 4.38795,-4.38795 -3.33847,-3.38597 z m -20.35473,19.89045 h -1.46409 v 1.85063 h 1.46409 z m 2.38832,-17.96641 3.07286,3.0232 v -2.33866 l -3.07286,-3.07286 z m -2.42287,25.89582 c 0.19219,0 0.34766,-0.15548 0.34766,-0.34767 0,-0.19003 -0.15547,-0.34767 -0.34766,-0.34767 -0.19004,0 -0.34551,0.15764 -0.34551,0.34767 0,0.19219 0.15547,0.34767 0.34551,0.34767 M 9.6995731,71.148134 c 0,0.19003 0.15548,0.34551 0.3476699,0.34551 0.19218,0 0.3455,-0.15548 0.3455,-0.34551 0,-0.19219 -0.1534,-0.34767 -0.3455,-0.34767 -0.1921899,0 -0.3476699,0.15548 -0.3476699,0.34767 m 5.5842699,22.21831 c 0.0121,0.15764 0.0432,-0.0345 0.0432,-0.0345 v -2.26092 l -0.37358,0.41461 c 0.21162,0.57009 0.28504,1.38851 0.33039,1.88086 m 5.47414,-19.18216 v -0.47508 l -2.2674,-2.26739 h -5.31218 l 2.99944,2.74247 z M 9.2309831,67.731974 c 0,0 -0.19866,-1.23735 1.0926699,-3.0923 H 5.9616231 c 0,0 0.18571,0.50747 3.26936,3.0923 m -3.78115,6.8065 c -0.77955,3.41189 2.0968,5.84988 2.0968,5.84988 3.3125599,-2.19397 3.2650499,-4.24111 3.2650499,-4.24111 -2.2414799,0.58521 -3.2175399,3.36438 -3.2175399,3.36438 0.14684,-3.07286 -2.14431,-4.97315 -2.14431,-4.97315 m 2.56972,1.5807 c 0.6759,-2.99944 -1.24815,-5.26899 -1.24815,-5.26899 -1.3626,3.22401 1.04732,6.12412 1.04732,6.12412 3.6451099,-1.58502 3.9539099,-3.6084 3.9539099,-3.6084 -2.3105899,0.18571 -3.7530799,2.75327 -3.7530799,2.75327 m 0.30663,1.42954 c 0,-0.19003 -0.15547,-0.34767 -0.34766,-0.34767 -0.19219,0 -0.34767,0.15764 -0.34767,0.34767 0,0.19219 0.15548,0.34767 0.34767,0.34767 0.19219,0 0.34766,-0.15548 0.34766,-0.34767 m 17.7720699,17.58851 h 2.28683 c 0,0 0.15115,-0.99334 0.79682,-0.99334 h 9.49715 v -16.70962 l -0.94367,-0.99334 v 16.55847 h -8.50381 c 0,0 -1.1445,0.0993 -2.04066,1.192 0,0 -0.69533,-1.043 -2.18533,-1.14234 h -8.30515 v -16.45913 l -1.01925,1.01925 v 16.53471 h 9.27257 c 0,0 1.1445,0.0475 1.1445,0.99334 m -14.88276,-30.70485 c -2.3818399,2.56323 -1.10994,6.11333 -1.10994,6.11333 3.96902,-0.24186 4.9494,-2.0385 4.9494,-2.0385 -2.235,-0.61544 -4.46785,1.30213 -4.46785,1.30213 1.66276,-2.58699 0.62839,-5.37696 0.62839,-5.37696 m 11.19446,22.59189 -0.0864,-0.57872 h -0.0104 l -0.0821,0.57872 -0.16187,1.01709 h 0.53338 l -0.19219,-1.01709 z m 21.94192,7.19089 c 0.57872,-0.35847 1.12722,-0.8465 1.58501,-1.51592 0,0 -1.25678,-0.16412 -2.72735,0.33255 z m 2.41639,-15.16348 c 0,0 -1.03868,-2.75543 -3.29528,-3.2888 0,0 -0.002,2.04929 3.36438,4.16553 0,0 2.81805,-2.50494 1.9586,-5.89955 0,0 -2.2458,1.95644 -2.0277,5.02282 m -4.22599,8.22309 c 0,0 -1.31725,1.5699 -0.0993,5.35321 0,0 3.7682,-0.10797 5.29059,-3.25857 0,0 -2.97569,0.054 -4.78097,2.5438 0,0 0.97391,-2.77918 -0.41028,-4.63844 m 4.13529,-4.80688 c 0,0 -0.54633,-2.89579 -2.67553,-3.80923 0,0 -0.3563,2.01691 2.59132,4.6838 0,0 3.21106,-1.97588 2.95193,-5.46767 0,0 -2.55028,1.53535 -2.86772,4.5931 m -2.65609,-0.86809 c 0,0 -0.69965,1.92621 1.73834,5.06601 0,0 3.50474,-1.38851 3.85673,-4.87382 0,0 -2.77918,1.06891 -3.6192,4.02517 0,0 -0.0389,-2.94546 -1.97587,-4.21736 m 2.23068,2.58699 c 0.19219,0 0.34767,-0.15764 0.34767,-0.34983 0,-0.19003 -0.15548,-0.3455 -0.34767,-0.3455 -0.19218,0 -0.34766,0.15547 -0.34766,0.3455 0,0.19219 0.15548,0.34983 0.34766,0.34983 m -2.03201,5.94273 c 0,-0.19218 -0.15341,-0.34766 -0.34551,-0.34766 -0.19219,0 -0.34767,0.15548 -0.34767,0.34766 0,0.19219 0.15548,0.34767 0.34767,0.34767 0.19219,0 0.34551,-0.15548 0.34551,-0.34767 m -29.36169,-20.69376 h 0.002 c -0.1382,0.11014 -1.10346,0.99118 -2.57403,1.17041 l 0.50099,0.47076 5.26467,-0.0238 -1.63468,-1.63253 h -0.002 l -0.8249,-0.82922 c 0,0 -0.58737,0.74716 -0.73205,0.84434 m 20.35257,17.03353 h -0.0104 l -0.0798,0.57873 -0.16187,1.01925 h 0.53122 l -0.19435,-1.01925 -0.0841,-0.57873 z m -10.97635,-4.56286 c 0,-0.27425 -0.13181,-0.49667 -0.51178,-0.47723 h -0.10141 v 1.01924 l 0.13389,0.007 c 0.34334,0 0.47939,-0.23321 0.47939,-0.54849 m 3.24993,-1.66492 v 12.96735 c 0,0 0.73205,-0.72989 1.75561,-0.72989 h 8.04386 v -16.08773 h -4.33828 c 0,0 -1.23304,3.79411 -5.46119,3.85025 m 0.96958,0.58953 h 0.7558 v 3.11389 h 0.79035 v 0.70829 h -1.54615 z m 2.45095,8.48005 -0.18139,-2.75542 h -0.0121 l -0.12093,0.94367 -0.32391,1.81175 h -0.58305 l -0.36926,-1.83119 -0.12749,-0.85297 v -0.0713 h -0.0104 l -0.11229,2.75542 h -0.80978 l 0.33471,-3.82434 h 0.99333 l 0.37143,2.2566 h 0.009 l 0.30447,-2.2566 h 1.01493 l 0.3995,3.82434 h -0.77524 z m 4.83711,0 -0.14045,-0.64566 h -0.7666 l -0.13613,0.64566 h -0.74931 l 0.88536,-3.82434 h 0.79682 l 0.91776,3.82434 h -0.80762 z m -2.29979,-8.48005 h 0.85082 l 0.2181,0.53337 c 0.0648,0.18787 0.14252,0.38438 0.18139,0.58089 h 0.0104 c 0.0411,-0.19651 0.10365,-0.3887 0.17275,-0.58089 l 0.2289,-0.53337 h 0.81626 l -0.81626,1.85062 0.87673,1.97156 h -0.87673 l -0.24185,-0.6068 c -0.0712,-0.19435 -0.11886,-0.38006 -0.17051,-0.57225 h -0.009 c -0.0562,0.19219 -0.10159,0.3779 -0.1662,0.57225 l -0.22458,0.6068 h -0.85091 l 0.80978,-1.97156 -0.80978,-1.85062 z m 0.20515,4.65571 v 0.71045 h -0.7666 v 0.82922 h 0.6759 v 0.71261 h -0.6759 v 0.86161 h 0.7774 v 0.71045 h -1.53104 v -3.82434 z m -1.94348,-1.45761 c 0.36926,0 0.36926,-0.27856 0.37358,-0.56145 v -2.63665 h 0.7558 v 2.78781 c 0,0.40597 -0.0454,1.09483 -1.13586,1.09483 -0.70397,0 -1.12506,-0.32823 -1.12506,-1.043 v -2.83964 h 0.7558 v 2.4747 c 0,0.28936 -0.0368,0.7234 0.37574,0.7234 m -14.49406,-16.83919 c 0,0 -0.34119,0.49883 -1.64548,0.77956 l 1.64548,1.52239 z m 4.17849,6.65535 c 0,4.04676 2.53732,5.91466 5.66417,5.91466 3.13332,0 5.67281,-1.86142 5.67281,-5.91466 v -11.53564 h -11.33482 c 0,0 -0.002,7.4932 -0.002,11.53564 m 2.73167,-8.17342 v -1.70595 h 5.31434 v 2.43799 h 1.75345 v 1.75346 h -1.70378 v 0.78171 h 1.70378 v 1.90029 h -1.70378 v 5.7052 h -1.46409 l -2.02338,-2.02554 -1.85063,1.85278 -1.341,-1.33884 3.0707,-3.07286 1.58502,1.58502 v -7.87326 z m -7.57526,8.94001 1.35396,1.19201 h 3.05342 c -0.14686,-0.24186 -0.0993,-1.16825 -0.0993,-1.16825 z m 24.56345,15.25202 c 0,0 -0.24618,0.25913 -0.32823,0.65214 l 0.7342,0.76228 c -0.0411,-0.47507 -0.16187,-0.95879 -0.40597,-1.41442 m -28.87152,3.1182 c 1.12938,-3.81138 -0.22458,-5.34673 -0.22458,-5.34673 -1.341,1.88734 -0.30232,4.64276 -0.30232,4.64276 -1.8614199,-2.44663 -4.8392699,-2.42935 -4.8392699,-2.42935 1.59582,3.11605 5.3661699,3.13332 5.3661699,3.13332 m -0.18787,-25.25662 c 3.94958,0.45132 5.2258,-1.14881 5.2258,-1.14881 -2.09032,-0.99334 -4.62548,0.50746 -4.62548,0.50746 2.08816,-2.25875 1.55478,-5.18693 1.55478,-5.18693 -2.79213,2.11191 -2.1551,5.82828 -2.1551,5.82828 m 8.26627,27.93431 c 0.18788,2.31274 2.75327,3.75308 2.75327,3.75308 -2.99728,-0.6759 -5.269,1.250306 -5.269,1.250306 3.22618,1.36043 6.12629,-1.047326 6.12629,-1.047326 -1.58502,-3.64726 -3.61056,-3.95606 -3.61056,-3.95606 m -10.06272,-5.46982 c 1.77289,-3.55441 0.70829,-5.30355 0.70829,-5.30355 -1.6519599,1.62605 -1.1056199,4.52184 -1.1056199,4.52184 -1.41011,-2.73383 -4.34476,-3.23482 -4.34476,-3.23482 1.0322,3.34495 4.7420899,4.01653 4.7420899,4.01653 m 7.96827,4.31453 -0.49234,-0.004 c -0.0282,2.18534 2.0752,3.9064 2.0752,3.9064 -2.83748,-1.18769 -5.4072,0.31527 -5.4072,0.31527 2.94114,1.900296 6.21483,0.0302 6.21483,0.0302 -0.63703,-2.65609 -1.75562,-3.79411 -2.39049,-4.24758 m -7.31828,1.6498 c 0,0 0.53985,-0.32176 1.32588,-0.43837 l -0.87024,-0.2073 -0.0843,0.11013 c 0.0475,-0.0691 0.0843,-0.11013 0.0843,-0.11013 l -3.8610599,4.06187 c 0,0 -0.43836,0.634866 -0.0238,1.049476 0,0 0.3887,0.31744 0.92639,-0.0475 l 3.7595599,-3.288806 c -0.38006,-0.19651 -1.21144,-0.88753 -1.25678,-1.12938 m -2.1205499,-9.05663 c 2.3645599,-3.19594 1.6174099,-5.10272 1.6174099,-5.10272 -1.9067799,1.31725 -1.8722299,4.26271 -1.8722299,4.26271 -0.91343,-2.93682 -3.71637,-3.94095 -3.71637,-3.94095 0.43405,3.47667 3.97119,4.78096 3.97119,4.78096 m 1.9823499,-22.87046 -4.5714999,-4.5715 c 0,0 -1.91109,1.37124 -0.42541,4.5715 z m 2.06657,-1.66275 -2.68849,-2.7144 c -1.6649099,-1.66275 -3.6386299,-0.56577 -3.6386299,-0.56577 l 5.2949099,5.27116 c 0.35415,-1.3518 1.03221,-1.99099 1.03221,-1.99099 m -4.9515599,21.71517 c 0,0.19218 0.15547,0.34766 0.34766,0.34766 0.1922,0 0.34551,-0.15548 0.34551,-0.34766 0,-0.19219 -0.1534,-0.34767 -0.34551,-0.34767 -0.19219,0 -0.34766,0.15548 -0.34766,0.34767 m -0.009,-0.48156 c 2.8828299,-2.73815 2.4790199,-4.74425 2.4790199,-4.74425 -2.1075999,0.96526 -2.5848299,3.87185 -2.5848299,3.87185 -0.3887,-3.05127 -2.97569,-4.52616 -2.97569,-4.52616 -0.17491,3.49827 3.0815,5.39856 3.0815,5.39856 m 2.5308499,6.73093 c 0,0.19219 0.15547,0.34767 0.34766,0.34767 0.19219,0 0.34767,-0.15548 0.34767,-0.34767 0,-0.19219 -0.15548,-0.34767 -0.34767,-0.34767 -0.19219,0 -0.34766,0.15548 -0.34766,0.34767 m 29.07448,5.07033 c 0.19219,0 0.34767,-0.15548 0.34767,-0.34767 0,-0.19219 -0.15548,-0.34767 -0.34767,-0.34767 -0.19219,0 -0.34767,0.15548 -0.34767,0.34767 0,0.19219 0.15548,0.34767 0.34767,0.34767 m 1.84631,-0.45132 -1.22224,-0.9955 c 0.0259,0.31096 0.0668,0.63919 0.12318,0.99118 0,0 0.44052,0.0518 1.09914,0.004 m 3.41837,-6.15004 c 0,0 0.47723,-2.90659 -1.21144,-4.49376 0,0 -1.02356,1.77288 0.83354,5.28627 0,0 3.69261,-0.75796 4.64492,-4.12666 0,0 -2.92386,0.57009 -4.26702,3.33415 m -23.17278,9.69797 c 0,-0.19219 -0.15548,-0.34767 -0.34766,-0.34767 -0.19219,0 -0.34767,0.15548 -0.34767,0.34767 0,0.19219 0.15548,0.34767 0.34767,0.34767 0.19218,0 0.34766,-0.15548 0.34766,-0.34767 m 16.44401,-2.0968 c 0,0 0.75364,-0.90264 1.12291,-2.17238 l -1.41227,-0.0216 c -0.22458,0.69317 -0.39301,1.57422 -0.43404,2.6928 0,0 3.05127,1.01277 5.49573,-0.7558 l -0.94151,-0.75795 c -1.043,-0.0583 -2.4747,0.0972 -3.83082,1.01492 m 1.02789,-5.63177 v 1.85278 l 8.28787,6.87345 h 1.65628 l -8.43471,-8.72623 z m -12.14028,7.99418 v 0.86593 c -0.39949,-0.62839 -1.96076,-2.91306 -3.725,-3.02535 0,0 0.60032,2.04066 3.24129,3.241296 0,0 -3.31472,0.2181 -4.66652,2.03201 0,0 2.88931,0.26129 5.15023,-1.98667 v 1.41011 h 0.87888 v -1.511596 -1.02573 z m 1.46409,1.073236 c 2.63234,-1.217916 3.21754,-3.265046 3.21754,-3.265046 -2.04713,0.14468 -3.80275,3.21754 -3.80275,3.21754 2.29115,2.338656 5.26468,2.047126 5.26468,2.047126 -1.36475,-1.80527 -4.67947,-1.99962 -4.67947,-1.99962 m 3.40109,-0.723406 c 0,0 2.533,-1.50296 2.66473,-3.8157 0,0 -2.0169,0.3563 -3.51554,4.03812 0,0 2.95409,2.338656 6.14788,0.904796 0,0 -2.31491,-1.874376 -5.29707,-1.127216 m 3.2413,-1.08403 c 0,0 1.96723,-1.68867 1.98451,-3.79843 l -0.70181,0.0281 c -0.63488,0.55713 -1.56559,1.7405 -2.08169,4.13746 0,0 3.31903,1.790156 6.2105,-0.17707 0,0 -2.60426,-1.4425 -5.41151,-0.19003 m -1.74266,0.33471 c 0,0.19219 0.15548,0.34767 0.34767,0.34767 0.19219,0 0.34767,-0.15548 0.34767,-0.34767 0,-0.19219 -0.15548,-0.34767 -0.34767,-0.34767 -0.19219,0 -0.34767,0.15548 -0.34767,0.34767 m 12.28065,-25.33435 c 0,0 1.79232,-3.31687 -0.17707,-6.21266 0,0 -1.44034,2.60426 -0.18788,5.41367 0,0 -1.91757,-2.23284 -4.21951,-1.96291 0,0 0.69965,1.9262 4.58446,2.7619 m -8.43039,-7.75449 1.05163,-1.08835 c -0.89616,-0.2073 -2.57835,-0.50746 -3.93879,0.50746 0,0 0.69966,0.79251 2.88716,0.58089 m 6.99653,5.6253 c 0.19219,0 0.34767,-0.15548 0.34767,-0.34767 0,-0.19003 -0.15548,-0.34767 -0.34767,-0.34767 -0.19219,0 -0.34767,0.15764 -0.34767,0.34767 0,0.19219 0.15548,0.34767 0.34767,0.34767 m 2.37537,5.42231 c 0,0 2.34081,-2.95625 0.90263,-6.15004 0,0 -1.87222,2.31706 -1.12505,5.30139 0,0 -1.50081,-2.53517 -3.81571,-2.66689 0,0 0.35631,2.0169 4.03813,3.51554 m -5.05953,-16.647 c 1.09482,0.54418 1.97803,-0.0259 1.97803,-0.0259 1.22007,-0.59816 2.10112,0.23106 2.10112,0.23106 0.85081,0.6651 0.71261,1.53967 0.71261,1.53967 0,0.67158 -0.19435,0.71693 -0.19435,0.71693 -0.40597,0.27856 -0.30448,-0.19219 -0.30448,-0.19219 0.0121,-0.007 0.0928,-0.33039 0.0928,-0.33039 0.1598,-1.51376 -1.19848,-1.73186 -1.19848,-1.73186 -1.4425,-0.25265 -1.80096,1.07971 -1.80096,1.07971 -0.0907,0.3671 -0.0993,0.69318 -0.0582,0.98038 l -1.80096,-1.80096 0.0843,1.52239 4.02301,4.02085 h 1.43818 l -1.45978,-1.45977 c 0.77091,0.24186 1.44681,0.26777 1.44681,0.26777 2.05361,-0.12525 2.26956,-2.09032 2.26956,-2.09032 0.54201,-2.05146 -1.40363,-3.70989 -1.40363,-3.70989 -1.29781,-1.11427 -3.26073,-1.20496 -3.26073,-1.20496 -2.79213,-0.32392 -3.78331,-2.1076 -3.78331,-2.1076 -0.32607,0.81194 -0.24186,2.01258 -0.24186,2.01258 0.18572,1.85063 1.36044,2.28251 1.36044,2.28251 m 4.56503,17.21709 c 0,0.19219 0.15547,0.34767 0.34766,0.34767 0.19003,0 0.34767,-0.15548 0.34767,-0.34767 0,-0.19219 -0.15773,-0.34767 -0.34767,-0.34767 -0.19219,0 -0.34766,0.15548 -0.34766,0.34767 m -7.62062,-12.97382 0.85082,-0.86161 c -0.36063,-1.21575 -1.09267,-2.682 -2.90011,-3.55441 0,0 -0.0755,2.59995 2.04929,4.41602 m 2.13352,24.02359 h -1.46409 v 1.85279 h 1.46409 z m 1.13585,-18.3551 c 0.64567,0.18355 1.43818,0.32175 2.40776,0.36062 0,0 0.44052,-1.31077 0.2505,-2.90442 l -1.26759,1.21359 c 0.13596,0.32176 0.3088,0.64567 0.52474,0.96527 0,0 -0.34982,-0.28721 -0.90912,-0.59816 z m -27.7853,-3.95391 c 0,0.19219 0.15548,0.34767 0.34766,0.34767 0.19219,0 0.34767,-0.15548 0.34767,-0.34767 0,-0.19218 -0.15548,-0.34766 -0.34767,-0.34766 -0.19218,0 -0.34766,0.15548 -0.34766,0.34766 m 30.59471,0.41893 -3.75307,-3.75308 -3.36438,3.65375 3.60839,3.56089 z m -7.96827,0.12093 -0.7558,0.90264 4.09427,4.09643 0.82922,-0.82922 z m 3.94959,12.69957 h -1.46409 v 1.85279 h 1.46409 z m -17.52373,-17.68784 c 0,0 1.15097,0.76012 3.17219,-0.63271 0,0 -2.50277,-1.02788 -3.17219,0.63271 m 13.04292,1.31077 c 0,0 -1.13802,-0.34334 -2.57403,0.14468 l -0.002,1.31078 c 0.87456,-0.0173 1.76209,-0.2289 3.3687,-1.07756 0,0 -0.76012,-3.69261 -4.12666,-4.64276 0,0 0.56793,2.9217 3.33415,4.26486 m -15.09655,1.63037 0.0282,-1.27406 c -1.41874,-0.41677 -2.8526,-0.14468 -2.8526,-0.14468 2.73167,-1.41011 3.23266,-4.34476 3.23266,-4.34476 -3.34495,1.03004 -4.01869,4.73993 -4.01869,4.73993 1.54398,0.76876 2.74462,1.00413 3.61055,1.02357 m -1.05163,0.73852 c -1.8895,-1.34316 -4.64493,-0.30448 -4.64493,-0.30448 2.44663,-1.86142 2.42935,-4.83927 2.42935,-4.83927 -3.11604,1.59798 -3.13332,5.36617 -3.13332,5.36617 3.81139,1.13154 5.3489,-0.22242 5.3489,-0.22242 m -0.21595,-2.79645 c 0,0.19219 0.15548,0.34766 0.34767,0.34766 0.19219,0 0.34767,-0.15547 0.34767,-0.34766 0,-0.19219 -0.15548,-0.34767 -0.34767,-0.34767 -0.19219,0 -0.34767,0.15548 -0.34767,0.34767 m 0.84218,-0.3671 2.62154,-0.0367 c -0.81411,-0.49019 -1.70595,-0.47291 -1.70595,-0.47291 2.93466,-0.91344 3.77252,-3.53066 3.77252,-3.53066 -3.47235,0.43405 -4.77881,3.97118 -4.77881,3.97118 0.0454,0.0345 0.0454,0.0345 0.0907,0.0691 m 13.99739,0.17708 c 0,-0.19219 -0.15341,-0.34767 -0.34551,-0.34767 -0.19219,0 -0.34766,0.15548 -0.34766,0.34767 0,0.19218 0.15547,0.34766 0.34766,0.34766 0.19219,0 0.34551,-0.15548 0.34551,-0.34766 m -1.83983,-0.6867 c 0,0 -0.89184,-0.0173 -1.70594,0.47291 l 2.62154,0.0367 c 0.0454,-0.0346 0.0475,-0.0346 0.0907,-0.0691 0,0 -1.3043,-3.53713 -4.77881,-3.97118 0,0 0.83786,2.61722 3.77251,3.53066 m -5.6361,-0.40165 c 0.25697,0 0.46428,-0.20947 0.46428,-0.46644 0,-0.25697 -0.20731,-0.46427 -0.46428,-0.46427 -0.25697,0 -0.46644,0.2073 -0.46644,0.46427 0,0.25697 0.20947,0.46644 0.46644,0.46644 m 4.07051,0.24185 c -0.73204,-1.63468 -3.19378,-0.51178 -3.19378,-0.51178 2.07304,1.31509 3.19378,0.51178 3.19378,0.51178"
         id="path1" /><path
         d="m 57.22518,97.410722 -0.615676,-0.14604 0.0662,-0.45721 c 0.03648,-0.2514 0.07823,-0.47121 0.09289,-0.48842 0.01467,-0.0171 0.258922,0.038 0.542803,0.12248 1.276556,0.37964 2.337603,-0.0736 2.337603,-0.998544 0,-0.597874 -0.295702,-0.918436 -1.412121,-1.53069 -0.564429,-0.309605 -1.1357,-0.693061 -1.269424,-0.852308 -0.618509,-0.736197 -0.561682,-1.854873 0.129323,-2.547044 0.602475,-0.603553 1.557304,-0.791658 2.747774,-0.541537 l 0.537525,0.112951 -0.0341,0.489499 c -0.0188,0.269201 -0.04488,0.501032 -0.05804,0.515022 -0.01316,0.01404 -0.212275,-0.04112 -0.442438,-0.122352 -0.821306,-0.290237 -1.803802,-0.129323 -2.052569,0.336206 -0.173726,0.325151 -0.114079,0.757711 0.147425,1.068983 0.136456,0.162369 0.631233,0.503088 1.099495,0.75692 1.075727,0.583208 1.521889,1.034158 1.681236,1.699339 0.304315,1.270875 -0.306571,2.254565 -1.611497,2.595065 -0.698339,0.18215 -1.076805,0.17971 -1.886364,-0.0125 z m 13.126314,0.0257 c -0.663714,-0.16433 -1.06106,-0.38677 -1.5302,-0.85662 -0.804671,-0.806036 -1.187738,-2.221004 -0.975275,-3.601735 0.151136,-0.980841 0.490276,-1.648265 1.1403,-2.243306 0.677592,-0.620377 1.297091,-0.843408 2.342493,-0.843408 1.045503,0 1.664901,0.223031 2.342605,0.843408 0.649912,0.595128 0.989153,1.262465 1.140189,2.243406 0.276045,1.792845 -0.447817,3.531305 -1.743842,4.188085 -0.771801,0.39127 -1.810157,0.49447 -2.71627,0.27017 z m 1.954737,-1.02711 c 0.83245,-0.3861 1.324983,-1.255622 1.396589,-2.466049 0.05403,-0.913735 -0.14409,-1.668813 -0.591041,-2.252797 -0.467285,-0.610598 -0.941716,-0.822973 -1.839016,-0.822973 -0.647179,0 -0.792347,0.03448 -1.15369,0.274103 -0.81856,0.542803 -1.245353,1.58576 -1.164069,2.844603 0.10568,1.633021 0.990921,2.604473 2.373808,2.604473 0.364877,0 0.734142,-0.0685 0.977419,-0.18136 z m 6.102723,1.03738 c -0.802526,-0.22812 -1.394145,-0.79254 -1.72095,-1.641711 -0.138713,-0.360376 -0.173538,-0.885766 -0.205531,-3.101694 l -0.03861,-2.667943 h 1.091485 V 92.4652 c 0,2.689268 0.07848,3.202535 0.559726,3.662392 0.345885,0.33062 0.711151,0.46738 1.248375,0.46738 0.537237,0 0.902591,-0.13676 1.248488,-0.46728 0.481276,-0.459957 0.559727,-0.973312 0.559727,-3.662492 v -2.429856 h 1.091472 l -0.03949,2.667943 c -0.03297,2.223161 -0.06782,2.743474 -0.20894,3.121455 -0.230377,0.61695 -0.743933,1.19145 -1.29808,1.45244 -0.568239,0.26753 -1.658345,0.34832 -2.287622,0.16951 z m 40.714476,-0.0101 c -0.66372,-0.16433 -1.06116,-0.38677 -1.53022,-0.8566 -0.80466,-0.80604 -1.18782,-2.221008 -0.97526,-3.60174 0.15113,-0.980853 0.49028,-1.648278 1.14029,-2.243318 0.67761,-0.620377 1.2971,-0.843408 2.3425,-0.843408 1.04551,0 1.66491,0.223031 2.3426,0.843408 0.64992,0.59514 0.98917,1.262465 1.1402,2.243406 0.27604,1.792858 -0.44783,3.531322 -1.74384,4.188082 -0.77182,0.39127 -1.81017,0.49448 -2.71627,0.27017 z m 1.95473,-1.02711 c 0.83246,-0.38609 1.32498,-1.255619 1.39658,-2.466046 0.054,-0.913735 -0.14409,-1.668813 -0.59103,-2.252797 -0.46728,-0.610598 -0.94172,-0.822961 -1.83902,-0.822961 -0.64717,0 -0.79234,0.03448 -1.1537,0.274091 -0.81855,0.542803 -1.24534,1.58576 -1.16405,2.844616 0.10567,1.633009 0.99092,2.604457 2.3738,2.604457 0.36487,0 0.73415,-0.0685 0.97742,-0.18136 z m 29.95111,1.03739 c -0.80252,-0.22811 -1.39414,-0.79255 -1.72095,-1.641718 -0.13871,-0.360364 -0.17353,-0.885766 -0.20563,-3.101682 l -0.0385,-2.667956 h 1.09149 v 2.429857 c 0,2.68928 0.0785,3.202535 0.55962,3.662399 0.34599,0.33062 0.71125,0.46738 1.24848,0.46738 0.53723,0 0.90259,-0.13676 1.24848,-0.46729 0.48128,-0.459954 0.55973,-0.973309 0.55973,-3.662489 v -2.429857 h 1.09147 l -0.0395,2.667956 c -0.033,2.223162 -0.0678,2.743462 -0.20895,3.12144 -0.23046,0.61696 -0.74392,1.19145 -1.29807,1.45244 -0.56833,0.26753 -1.65834,0.34834 -2.28762,0.16952 z m 36.28692,-0.036 -0.61568,-0.14605 0.0662,-0.4572 c 0.0364,-0.2514 0.0782,-0.47121 0.0929,-0.48842 0.0146,-0.0171 0.25892,0.038 0.5429,0.12247 1.27646,0.37965 2.33752,-0.0735 2.33752,-0.998536 0,-0.597874 -0.29572,-0.918436 -1.41214,-1.530689 -0.56442,-0.309605 -1.1357,-0.693061 -1.26941,-0.85232 -0.61843,-0.736185 -0.56169,-1.854861 0.12932,-2.547045 0.60257,-0.60354 1.5573,-0.791657 2.74777,-0.541524 l 0.53753,0.112951 -0.0341,0.489499 c -0.0188,0.269201 -0.0449,0.501032 -0.0581,0.515023 -0.0132,0.01404 -0.21227,-0.04112 -0.44244,-0.122353 -0.82129,-0.290225 -1.80381,-0.129311 -2.05256,0.336207 -0.17373,0.325162 -0.11407,0.757723 0.14742,1.068983 0.13645,0.16238 0.63123,0.503088 1.09949,0.756932 1.07573,0.583207 1.52189,1.034157 1.68124,1.699338 0.30431,1.270884 -0.30658,2.254564 -1.61149,2.595074 -0.69834,0.18215 -1.07681,0.17969 -1.88638,-0.0125 z M 62.287966,93.756023 v -3.720404 h 4.105038 v 0.979086 h -3.029887 v 2.055979 h 2.834436 v 0.979085 h -2.834436 v 2.447573 h 3.029887 v 0.97907 h -4.104937 v -3.720389 z m 21.893559,0 v -3.720404 h 1.075138 v 6.461723 h 3.029988 v 0.97907 h -4.105126 z m 8.30787,0 v -3.720404 h 1.443437 l 1.648463,2.991251 1.64847,2.991152 0.02587,-2.991152 0.02578,-2.991251 h 1.072305 v 7.449303 l -0.694817,-0.0287 -0.694809,-0.0287 -1.67537,-3.020689 -1.675271,-3.020698 -0.02583,3.045156 -0.02583,3.045141 h -1.072305 v -3.720288 z m 7.079649,3.549009 c 0.0306,-0.0941 0.730716,-1.75733 1.556036,-3.695832 l 1.50046,-3.524577 h 1.13511 l 1.54821,3.66211 c 0.85152,2.014209 1.5482,3.677349 1.5482,3.695939 0,0.0185 -0.25286,0.0336 -0.56198,0.0335 l -0.56197,-1.8e-4 -0.35411,-0.90543 -0.35421,-0.905333 -1.85076,-0.02645 -1.85077,-0.02658 -0.37603,0.932233 -0.37611,0.93212 h -0.52882 c -0.459755,0 -0.521579,-0.0226 -0.473256,-0.17138 z m 4.998236,-2.741305 c -0.35304,-0.964218 -1.37468,-3.451002 -1.41772,-3.450512 -0.0408,3.63e-4 -1.02808,2.396786 -1.45634,3.535219 -0.018,0.04789 0.63192,0.08662 1.45213,0.08662 1.37273,0 1.47994,-0.01304 1.42193,-0.171382 z m 9.32706,-0.807704 v -3.720404 h 1.07514 v 7.440793 h -1.07514 z m 11.33777,0 v -3.720404 h 1.44343 l 1.64847,2.991251 1.64846,2.991152 0.0259,-2.991152 0.0259,-2.991251 h 1.07231 v 7.449303 l -0.69482,-0.0287 -0.69492,-0.0287 -1.67527,-3.020689 -1.67537,-3.020698 -0.0258,3.045156 -0.0258,3.045141 h -1.0723 z m 7.07963,3.549009 c 0.0304,-0.0941 0.73073,-1.75733 1.55603,-3.695832 l 1.50038,-3.524577 h 1.13509 l 1.54831,3.66211 c 0.85151,2.014209 1.5482,3.677349 1.5482,3.695939 0,0.0185 -0.25287,0.0336 -0.56197,0.0335 l -0.56198,-1.8e-4 -0.35412,-0.90543 -0.3542,-0.905333 -1.85077,-0.02645 -1.85075,-0.02658 -0.37603,0.932233 -0.37612,0.93212 H 132.785 c -0.45975,0 -0.52158,-0.0226 -0.47326,-0.17138 z m 4.99823,-2.741305 c -0.35303,-0.964218 -1.37476,-3.451002 -1.41771,-3.450512 -0.041,3.63e-4 -1.02809,2.396786 -1.45635,3.535219 -0.0181,0.04789 0.63192,0.08662 1.45205,0.08662 1.37271,0 1.48002,-0.01304 1.42201,-0.171382 z m 3.46265,-0.807704 v -3.720404 h 1.07514 v 6.461723 h 3.02988 v 0.97907 h -4.10502 z m 16.02921,0 v -3.720404 h 1.44354 l 1.64837,2.991251 1.64847,2.991152 0.0258,-2.991152 0.0259,-2.991251 h 1.07231 v 7.449303 l -0.69492,-0.0287 -0.69483,-0.0287 -1.67536,-3.020689 -1.67527,-3.020698 -0.0258,3.045156 -0.0259,3.045141 h -1.0724 z m 7.81917,0 v -3.720404 h 1.07514 v 7.440793 H 164.621 Z m 3.55166,0.02445 -1.38259,-3.695846 0.53928,-0.02971 c 0.2966,-0.0163 0.55797,-0.01129 0.58086,0.01254 0.0229,0.02294 0.52472,1.424157 1.11496,3.113716 0.59025,1.689548 1.09949,3.138079 1.13177,3.218769 0.0796,0.19945 0.12678,0.0825 1.37174,-3.401207 l 1.05812,-2.960725 0.54907,-0.0011 0.54915,-7.39e-4 -1.40439,3.686756 c -0.77229,2.027609 -1.40432,3.701805 -1.40432,3.720295 0,0.0185 -0.29727,0.0337 -0.66058,0.0337 h -0.66057 z m 6.61324,-0.02445 v -3.720404 h 4.10503 v 0.979086 h -3.02989 v 2.055979 h 2.83445 v 0.979085 h -2.83445 v 2.447573 h 3.02989 v 0.97907 h -4.10503 z m 5.76661,-0.0618 v -3.782319 l 1.53939,0.04639 c 1.32634,0.03987 1.61081,0.07747 2.05521,0.270968 0.58223,0.253343 0.82854,0.542702 0.99757,1.171002 0.1927,0.717017 0.0556,1.258266 -0.43902,1.734352 -0.23232,0.223519 -0.56658,0.438238 -0.74284,0.476874 l -0.32037,0.07046 0.26715,0.195049 c 0.2827,0.206208 0.43726,0.482755 1.34209,2.400123 l 0.56598,1.19928 -0.60451,-3.7e-4 -0.60454,-3.7e-4 -0.58633,-1.38318 c -0.32252,-0.76085 -0.70303,-1.50956 -0.84557,-1.663917 -0.23486,-0.254333 -0.31957,-0.280747 -0.90415,-0.280747 h -0.64493 v 3.328824 h -1.07513 v -3.78247 z m 2.77232,-0.66058 c 0.44909,-0.188005 0.74637,-0.598652 0.74637,-1.031312 0,-0.745988 -0.5341,-1.085517 -1.70736,-1.085517 h -0.7362 v 2.251818 h 0.68729 c 0.37807,0 0.83246,-0.0608 1.0099,-0.134989 z m 9.05414,0.722408 v -3.720408 h 1.07515 v 7.440789 h -1.07515 z m 10.94678,2.152241 v -1.568257 l -1.35022,-2.029765 c -0.74264,-1.116432 -1.38297,-2.084951 -1.42299,-2.152244 -0.055,-0.09239 0.0719,-0.122228 0.51865,-0.122228 h 0.59133 l 1.1126,1.66979 1.11252,1.66999 1.06301,-1.668423 1.06301,-1.668323 0.61146,-0.0013 0.61158,-0.0013 -1.4179,2.129052 -1.41791,2.129065 v 3.182673 h -1.07514 z m -93.8296,-1.760679 V 90.91681 h -2.34573 v -0.979086 h 5.66868 v 0.979086 h -2.2479 v 6.461712 h -1.07515 v -3.230909 z m 87.37894,0 V 90.91681 h -2.34573 v -0.979086 h 5.66889 v 0.979086 h -2.24801 v 6.461712 h -1.07515 z M 90.730097,80.392136 v -2.790422 h 12.999353 v -0.971063 c 0,-0.534102 -0.0267,-1.040813 -0.0594,-1.125909 -0.0532,-0.139101 -0.72134,-0.154859 -6.5485,-0.154859 h -6.48918 v -1.563847 l 3.249784,-0.02583 3.249888,-0.02583 0.02697,-1.444027 0.02705,-1.444114 H 89.557131 V 69.084003 H 106.6615 v 1.762232 h -7.330461 v 2.937145 h 6.255321 v 5.580555 H 92.587026 v 2.153999 h 13.292604 v 1.664311 H 90.729996 V 80.391973 Z M 71.280009,76.573625 V 70.063 h -4.398295 v -1.860064 h 4.398295 v -6.168049 h 1.954737 V 83.084538 H 71.280009 Z M 132.66028,72.608578 V 62.132807 h 1.95475 v 6.559628 h 2.24801 v -6.559628 h 1.95483 v 20.951731 h -1.95483 v -12.62977 h -2.24793 v 12.629669 h -1.95483 V 72.608666 Z m 37.5088,7.220409 -0.0259,-3.255362 -6.91501,-0.02508 -6.91501,-0.02507 8.5e-4,-0.464453 c 7.4e-4,-0.255323 0.0283,-0.629577 0.0617,-0.831472 l 0.0607,-0.367221 h 12.68054 V 62.132832 h 2.24801 v 3.818323 h 3.02989 v 1.958072 h -3.02989 v 6.951207 h 0.78188 v 8.224141 h -1.9521 l -0.0257,-3.255363 z m 20.54832,0.856708 v -1.02809 h 2.73672 v -9.398778 h 2.15028 v 9.398866 h 2.54128 v -9.398866 h 1.95474 v 9.398866 h 2.62491 l 0.21187,-0.562949 c 0.11647,-0.309705 0.31812,-1.032401 0.44793,-1.606018 0.51287,-2.266399 0.5522,-2.775554 0.59798,-7.743943 l 0.0431,-4.674832 H 191.59707 V 63.111792 H 205.867 v 5.510014 c 0,4.302332 -0.0321,5.769739 -0.14644,6.694819 -0.16511,1.335639 -0.45417,2.819668 -0.72651,3.729103 l -0.18321,0.611965 h 2.71784 v 2.055991 h -16.81139 v -1.02809 z m -135.034155,-4.9545 -0.55856,-0.793914 0.625077,-0.545837 c 1.659223,-1.449204 2.213283,-2.155954 3.245083,-4.13975 0.696383,-1.338773 0.958941,-2.07116 1.188428,-3.314358 0.129309,-0.700782 0.341584,-2.983314 0.344417,-3.703178 9.3e-4,-0.213729 0.03009,-0.220286 0.978209,-0.220286 h 0.977418 v 1.072005 c 0,1.265311 0.210896,2.991739 0.491054,4.019152 0.244555,0.8974 1.171115,2.825047 1.835305,3.818311 0.457406,0.68416 1.382988,1.654921 2.491973,2.613561 l 0.468853,0.405369 -0.548282,0.766811 c -0.301582,0.421704 -0.584373,0.779623 -0.628299,0.79547 -0.150835,0.05428 -1.624409,-1.137055 -2.358451,-1.906712 -0.857686,-0.899255 -1.545168,-1.912966 -2.303856,-3.397296 l -0.544671,-1.06546 -0.31625,0.728576 c -0.690415,1.590549 -1.721638,3.124761 -2.744739,4.0833 -0.668891,0.626832 -1.879219,1.57785 -2.008053,1.57785 -0.042,0 -0.327695,-0.357142 -0.634856,-0.793714 z m 66.518875,-5.619091 v -6.412805 h 8.01471 v 1.664413 h -5.86443 v 9.398865 h 6.05987 v 1.762232 h -8.21025 v -6.412705 z m 37.75539,3.435833 c -0.67182,-0.217452 -1.24983,-0.608442 -1.77905,-1.203182 -0.60962,-0.685138 -0.89828,-1.402156 -0.96137,-2.387798 -0.10693,-1.671069 0.75321,-3.11675 2.30963,-3.882483 0.49878,-0.245333 0.64855,-0.27018 1.6245,-0.27018 0.96353,0 1.13354,0.02745 1.63751,0.263912 0.73434,0.344718 1.58781,1.162113 1.93714,1.855162 1.00686,1.997685 0.16443,4.448766 -1.85908,5.409273 -0.55825,0.265089 -0.75938,0.30686 -1.56893,0.326328 -0.57656,0.01379 -1.08465,-0.02833 -1.34035,-0.11107 z m 1.85468,-1.876574 c 0.76526,-0.261191 1.43942,-1.174926 1.43942,-1.950938 0,-0.849074 -0.7717,-1.793435 -1.63486,-2.000908 -0.86571,-0.207974 -1.69582,0.163935 -2.20429,0.987786 -0.59044,0.956583 -0.22988,2.28361 0.76076,2.799611 0.66165,0.34453 1.00902,0.379456 1.63897,0.164349 z M 97.634255,68.288245 C 95.643804,68.00652 94.150973,66.2528 94.150973,64.19622 c 0,-3.088669 3.20195,-5.019938 6.021227,-3.631773 1.19185,0.58693 2.05669,1.889599 2.1594,3.252818 0.20708,2.749729 -2.00211,4.85248 -4.697345,4.47098 z m 1.222075,-1.961306 c 0.50582,-0.151813 1.14391,-0.713796 1.36557,-1.202694 0.47316,-1.043345 0.0389,-2.284687 -0.988479,-2.825346 -0.463279,-0.243866 -0.614597,-0.276147 -1.095384,-0.234176 -0.711742,0.06205 -1.304832,0.389423 -1.682903,0.928891 -0.242587,0.346098 -0.301283,0.539093 -0.332589,1.093253 -0.03331,0.592785 -0.0051,0.732964 0.236433,1.177746 0.512093,0.942405 1.498598,1.362053 2.497352,1.062326 z m 56.77265,-1.844494 v -0.783246 h 4.30056 v -1.957971 h 2.24792 v 1.958159 h 4.20284 v 1.566304 h -10.75132 z"
         fill="#003380"
         fill-opacity="1"
         id="path1-4"
         style="stroke-width:0.0978203" /></g></g></svg>
